<svg width="594" height="580" viewBox="0 0 594 580" fill="none" xmlns="http://www.w3.org/2000/svg">
<g clip-path="url(#clip0_124_39)">
<mask id="mask0_124_39" style="mask-type:luminance" maskUnits="userSpaceOnUse" x="0" y="371" width="594" height="209">
<path d="M594 371H0V579.515H594V371Z" fill="white"/>
</mask>
<g mask="url(#mask0_124_39)">
<path d="M557.151 543.803C557.151 553.978 565.4 562.227 575.575 562.227C585.75 562.227 593.998 553.978 593.998 543.803V444.062C593.998 433.887 585.75 425.639 575.575 425.639C565.4 425.639 557.151 433.887 557.151 444.062V543.803Z" fill="#293644"/>
<path d="M557.151 389.427C557.151 399.603 565.4 407.851 575.575 407.851C585.75 407.851 593.998 399.603 593.998 389.427C593.998 379.252 585.75 371.004 575.575 371.004C565.4 371.004 557.151 379.252 557.151 389.427Z" fill="#38B2A9"/>
<path d="M0.0510808 388.058C0.366697 383.757 2.15873 379.867 4.92239 376.891L4.92745 376.885C5.02709 376.778 5.12774 376.672 5.22991 376.567L5.24205 376.555C8.58737 373.129 13.2569 371.001 18.4241 371.001C22.783 371.001 26.7874 372.514 29.942 375.045L29.9607 375.061C30.0583 375.139 30.155 375.218 30.2511 375.298L30.3639 375.393L30.5601 375.563L30.7381 375.721L30.8676 375.838C30.9435 375.907 31.0189 375.978 31.0932 376.048L31.1711 376.122C31.2556 376.203 31.3395 376.285 31.4225 376.368L31.4822 376.428C31.5656 376.511 31.6486 376.596 31.7305 376.682L31.7963 376.75C31.8721 376.83 31.9475 376.911 32.0218 376.993L32.125 377.106L32.2985 377.302L32.4533 377.481L32.5752 377.625C32.6409 377.703 32.7057 377.783 32.7699 377.863L32.8473 377.959C33.7066 379.039 34.4471 380.216 35.0495 381.473L88.729 486.825L141.374 383.504C143.839 376.233 150.721 371 158.826 371C158.993 371 159.16 371.002 159.326 371.007C162.049 371.048 164.805 371.695 167.395 373.015C174.655 376.714 178.411 384.565 177.249 392.201V489.164C177.249 499.339 169.001 507.588 158.826 507.588C148.65 507.588 140.402 499.339 140.402 489.164V466.573L105.361 535.345C102.074 541.796 95.5092 545.48 88.729 545.407C81.9488 545.481 75.3836 541.797 72.097 535.345L36.8491 466.168V543.8C36.8491 553.975 28.6007 562.223 18.4256 562.223C8.25052 562.223 0.00201878 553.975 0.00201878 543.8V389.63C-0.00354496 389.104 0.0131463 388.579 0.0525982 388.057L0.0510808 388.058Z" fill="#293644"/>
<path d="M177.248 543.804C177.248 533.629 168.999 525.381 158.824 525.381C148.649 525.381 140.4 533.629 140.4 543.804C140.4 553.979 148.649 562.228 158.824 562.228C168.999 562.228 177.248 553.979 177.248 543.804Z" fill="#38B2A9"/>
<path d="M395.784 426.274C395.784 416.099 404.032 407.85 414.207 407.85C424.382 407.85 432.631 416.099 432.631 426.274V442.794H432.636V503.783C432.636 535.36 407.037 560.959 375.46 560.959H329.719C298.141 560.959 272.542 535.36 272.542 503.783V442.794H272.714C272.599 441.962 272.538 441.113 272.538 440.249V389.426C272.538 379.25 280.787 371.002 290.962 371.002C301.137 371.002 309.385 379.25 309.385 389.426V440.249C309.385 441.113 309.324 441.962 309.209 442.794H309.389V492.348C309.389 509.891 323.611 524.113 341.154 524.113H364.025C381.568 524.113 395.79 509.891 395.79 492.348V478.164C395.787 478.02 395.784 477.877 395.784 477.734V426.275V426.274Z" fill="#293644"/>
<path fill-rule="evenodd" clip-rule="evenodd" d="M418.141 554.288L427.385 570.3C432.472 579.112 443.74 582.131 452.552 577.043C461.364 571.956 464.383 560.688 459.296 551.876L447.71 531.81C445.334 527.695 441.611 524.843 437.419 523.49C434.48 535.772 427.578 546.513 418.141 554.288Z" fill="#38B2A9"/>
</g>
<mask id="mask1_124_39" style="mask-type:luminance" maskUnits="userSpaceOnUse" x="218" y="0" width="159" height="271">
<path d="M376.367 0H218V271H376.367V0Z" fill="white"/>
</mask>
<g mask="url(#mask1_124_39)">
<path d="M264.894 248.757C264.894 251.908 262.34 254.463 259.19 254.463C256.039 254.463 253.484 251.909 253.484 248.757C253.484 245.606 256.038 243.053 259.19 243.053C262.34 243.053 264.894 245.607 264.894 248.757ZM307.469 0C316.001 1.11961 324.118 3.60954 331.588 7.24306C331.674 7.86824 331.72 8.50663 331.72 9.15545C331.72 16.8071 325.517 23.0098 317.866 23.0098C310.214 23.0098 304.011 16.8071 304.011 9.15545C304.011 5.6457 305.317 2.44124 307.469 0ZM336.216 9.68848C342.752 13.4211 348.713 18.0578 353.926 23.425C351.915 25.1948 349.278 26.2688 346.389 26.2688C340.088 26.2688 334.98 21.1603 334.98 14.8592C334.98 12.9979 335.425 11.2406 336.216 9.68848ZM357.061 26.8401C368.687 40.2828 375.888 57.6427 376.344 76.5972C361.32 74.8816 349.648 62.126 349.648 46.642C349.648 39.063 352.445 32.1378 357.061 26.8401ZM376.368 83.6219V110.664C373 113.898 368.427 115.887 363.388 115.887C353.036 115.887 344.644 107.495 344.644 97.1428C344.644 86.7906 353.036 78.399 363.388 78.399C368.427 78.399 373 80.3875 376.368 83.6219ZM376.368 116.35V131.788C373.153 130.696 370.839 127.653 370.839 124.069C370.839 120.485 373.153 117.442 376.368 116.35ZM376.368 191.647V191.817C376.368 210.821 369.583 228.319 358.314 242.003C349.326 237.65 343.127 228.442 343.127 217.785C343.127 202.932 355.168 190.891 370.021 190.891C372.208 190.891 374.332 191.154 376.368 191.647ZM351.031 249.736C346.423 254.024 341.309 257.773 335.79 260.879C328.909 260.07 323.57 254.219 323.57 247.121C323.57 239.469 329.773 233.267 337.424 233.267C345.076 233.267 351.279 239.469 351.279 247.121C351.279 248.015 351.193 248.889 351.031 249.736ZM330.424 263.635C320.303 268.356 309.038 271.001 297.184 271.001C296.447 271.001 295.712 270.989 294.978 270.968C297.378 262.388 305.254 256.094 314.601 256.094C320.988 256.094 326.689 259.034 330.424 263.635ZM275.581 267.986C271.462 266.81 267.479 265.302 263.659 263.501C263.402 262.708 263.262 261.862 263.262 260.984C263.262 256.483 266.911 252.834 271.412 252.834C275.912 252.834 279.561 256.483 279.561 260.984C279.561 263.96 277.965 266.564 275.581 267.986ZM251.853 256.639C245.755 252.354 240.282 247.231 235.604 241.444C235.858 241.431 236.115 241.425 236.373 241.425C244.834 241.425 251.709 248.212 251.853 256.639ZM220.924 213.084C219.022 206.31 218.001 199.177 218.001 191.817V182.068C221.229 179.433 225.352 177.852 229.845 177.852C240.197 177.852 248.589 186.243 248.589 196.595C248.589 206.948 240.197 215.339 229.845 215.339C226.615 215.339 223.576 214.522 220.924 213.084ZM218.001 177.325V162.079C218.899 161.739 219.872 161.552 220.889 161.552C225.39 161.552 229.039 165.201 229.039 169.702C229.039 174.202 225.389 177.852 220.889 177.852C219.872 177.852 218.899 177.665 218.001 177.325ZM218.001 154.933V111.125C225.571 115.488 230.668 123.664 230.668 133.029C230.668 142.394 225.572 150.569 218.001 154.933ZM219.523 63.0923C221.45 53.4341 225.147 44.3944 230.26 36.3297C236.996 37.6573 242.078 43.595 242.078 50.7209C242.078 58.8225 235.51 65.3899 227.408 65.3899C224.506 65.3899 221.8 64.5468 219.523 63.0923ZM238.903 25.0554C246.437 16.8516 255.668 10.2302 266.025 5.75871C266.35 7.1092 266.523 8.5188 266.523 9.96908C266.523 19.8714 258.496 27.8978 248.595 27.8978C245.024 27.8978 241.697 26.8544 238.903 25.0554ZM344 44.1406C344 54.1361 335.897 62.2383 325.902 62.2383C315.907 62.2383 307.804 54.1361 307.804 44.1406C307.804 34.1451 315.906 26.0428 325.902 26.0428C335.897 26.0428 344 34.1451 344 44.1406ZM305.641 26.2734C305.641 36.1757 297.614 44.2025 287.713 44.2025C277.81 44.2025 269.784 36.1753 269.784 26.2734C269.784 16.371 277.811 8.34425 287.713 8.34425C297.615 8.34425 305.641 16.3714 305.641 26.2734ZM273.041 46.6444C273.041 54.2957 266.838 60.4988 259.187 60.4988C251.535 60.4988 245.333 54.2957 245.333 46.6444C245.333 38.9928 251.535 32.7901 259.187 32.7901C266.838 32.7901 273.041 38.9928 273.041 46.6444ZM258.369 67.8354C258.369 70.9863 255.815 73.5398 252.664 73.5398C249.513 73.5398 246.959 70.9863 246.959 67.8354C246.959 64.6844 249.513 62.1299 252.664 62.1299C255.815 62.1299 258.369 64.6834 258.369 67.8354ZM245.334 77.616C245.334 83.4665 240.59 88.2102 234.74 88.2102C228.888 88.2102 224.145 83.4665 224.145 77.616C224.145 71.7644 228.889 67.0207 234.74 67.0207C240.591 67.0207 245.334 71.7644 245.334 77.616ZM292.934 74.1987C292.934 81.8733 286.568 88.0952 278.714 88.0952C270.862 88.0952 264.495 81.8736 264.495 74.1987C264.495 66.5242 270.861 60.3023 278.714 60.3023C286.567 60.3023 292.934 66.5242 292.934 74.1987ZM296.617 54.7081C296.617 58.7588 293.335 62.0429 289.283 62.0429C285.232 62.0429 281.948 58.7595 281.948 54.7081C281.948 50.6573 285.231 47.3729 289.283 47.3729C293.334 47.3729 296.617 50.6563 296.617 54.7081ZM319.439 72.9046C319.439 78.7944 314.664 83.5694 308.774 83.5694C302.884 83.5694 298.109 78.7944 298.109 72.9046C298.109 67.0144 302.884 62.2394 308.774 62.2394C314.664 62.2394 319.439 67.0144 319.439 72.9046ZM341.414 86.1546C341.414 91.1518 337.362 95.2033 332.365 95.2033C327.368 95.2033 323.316 91.1518 323.316 86.1546C323.316 81.1577 327.368 77.1059 332.365 77.1059C337.362 77.1059 341.414 81.1577 341.414 86.1546ZM351.895 68.4522C351.895 72.9529 348.246 76.6017 343.745 76.6017C339.245 76.6017 335.596 72.9526 335.596 68.4522C335.596 63.9515 339.245 60.3027 343.745 60.3027C348.246 60.3027 351.895 63.9518 351.895 68.4522ZM359.506 128.814C359.506 135.953 353.719 141.74 346.58 141.74C339.44 141.74 333.653 135.952 333.653 128.814C333.653 121.674 339.441 115.887 346.58 115.887C353.719 115.887 359.506 121.675 359.506 128.814ZM372.465 136.288C372.465 139.439 369.911 141.993 366.76 141.993C363.61 141.993 361.056 139.439 361.056 136.288C361.056 133.137 363.61 130.584 366.76 130.584C369.911 130.584 372.465 133.137 372.465 136.288ZM343.352 107.486C343.352 109.628 341.616 111.364 339.474 111.364C337.333 111.364 335.596 109.628 335.596 107.486C335.596 105.344 337.333 103.608 339.474 103.608C341.616 103.608 343.352 105.344 343.352 107.486ZM261.633 86.5805C261.633 91.0813 257.983 94.7301 253.483 94.7301C248.982 94.7301 245.333 91.0809 245.333 86.5805C245.333 82.0795 248.982 78.4307 253.483 78.4307C257.983 78.4307 261.633 82.0798 261.633 86.5805ZM265.786 106.84C265.786 110.767 262.603 113.95 258.676 113.95C254.75 113.95 251.566 110.767 251.566 106.84C251.566 102.913 254.749 99.7304 258.676 99.7304C262.603 99.7304 265.786 102.914 265.786 106.84ZM250.221 105.322C250.221 112.973 244.018 119.176 236.366 119.176C228.715 119.176 222.512 112.973 222.512 105.322C222.512 97.6706 228.715 91.4676 236.366 91.4676C244.018 91.4676 250.221 97.6706 250.221 105.322ZM263.201 135.924C263.201 143.063 257.414 148.851 250.275 148.851C243.135 148.851 237.348 143.063 237.348 135.924C237.348 128.784 243.136 122.997 250.275 122.997C257.414 122.997 263.201 128.785 263.201 135.924ZM268.152 170.518C268.152 179.07 261.219 186.003 252.667 186.003C244.116 186.003 237.183 179.07 237.183 170.518C237.183 161.967 244.116 155.034 252.667 155.034C261.219 155.034 268.152 161.967 268.152 170.518ZM238.818 155.848C238.818 158.999 236.264 161.553 233.113 161.553C229.962 161.553 227.409 158.999 227.409 155.848C227.409 152.697 229.962 150.144 233.113 150.144C236.264 150.144 238.818 152.698 238.818 155.848ZM285.176 161.454C285.176 165.202 282.137 168.241 278.39 168.241C274.642 168.241 271.603 165.202 271.603 161.454C271.603 157.707 274.642 154.668 278.39 154.668C282.138 154.668 285.176 157.707 285.176 161.454ZM287.716 179.488C287.716 183.988 284.067 187.637 279.567 187.637C275.066 187.637 271.417 183.988 271.417 179.488C271.417 174.987 275.066 171.338 279.567 171.338C284.068 171.338 287.716 174.987 287.716 179.488ZM310.388 169.534C310.388 174.889 306.047 179.229 300.693 179.229C295.338 179.229 290.998 174.889 290.998 169.534C290.998 164.18 295.338 159.839 300.693 159.839C306.047 159.839 310.388 164.18 310.388 169.534ZM335.596 156.602C335.596 161.599 331.544 165.65 326.547 165.65C321.55 165.65 317.498 161.599 317.498 156.602C317.498 151.604 321.549 147.553 326.547 147.553C331.544 147.553 335.596 151.604 335.596 156.602ZM375.736 160.739C375.736 169.29 368.804 176.223 360.252 176.223C351.7 176.223 344.767 169.29 344.767 160.739C344.767 152.187 351.699 145.255 360.252 145.255C368.803 145.255 375.736 152.187 375.736 160.739ZM343.349 168.565C343.349 171.243 341.179 173.413 338.501 173.413C335.824 173.413 333.654 171.243 333.654 168.565C333.654 165.888 335.824 163.718 338.501 163.718C341.179 163.718 343.349 165.888 343.349 168.565ZM362.691 185.187C362.691 189.238 359.407 192.522 355.356 192.522C351.305 192.522 348.021 189.237 348.021 185.187C348.021 181.136 351.305 177.852 355.356 177.852C359.407 177.852 362.691 181.135 362.691 185.187ZM346.391 191.714C346.391 202.966 337.27 212.088 326.017 212.088C314.765 212.088 305.643 202.967 305.643 191.714C305.643 180.46 314.764 171.339 326.017 171.339C337.27 171.339 346.391 180.461 346.391 191.714ZM301.985 191.505C301.985 194.361 299.67 196.676 296.815 196.676C293.959 196.676 291.645 194.36 291.645 191.505C291.645 188.65 293.96 186.334 296.815 186.334C299.671 186.334 301.985 188.649 301.985 191.505ZM289.059 197.325C289.059 200.18 286.744 202.495 283.889 202.495C281.033 202.495 278.718 200.18 278.718 197.325C278.718 194.469 281.034 192.154 283.889 192.154C286.745 192.154 289.059 194.47 289.059 197.325ZM274.673 200.672C274.673 206.973 269.565 212.081 263.264 212.081C256.962 212.081 251.855 206.972 251.855 200.672C251.855 194.37 256.963 189.262 263.264 189.262C269.565 189.262 274.673 194.37 274.673 200.672ZM321.943 230.826C321.943 245.678 309.902 257.72 295.05 257.72C280.197 257.72 268.155 245.679 268.155 230.826C268.155 215.973 280.196 203.932 295.05 203.932C309.902 203.932 321.943 215.972 321.943 230.826ZM339.87 221.866C339.87 226.367 336.22 230.016 331.72 230.016C327.219 230.016 323.57 226.367 323.57 221.866C323.57 217.366 327.219 213.716 331.72 213.716C336.221 213.716 339.87 217.366 339.87 221.866ZM264.893 227.57C264.893 236.121 257.96 243.054 249.409 243.054C240.857 243.054 233.925 236.121 233.925 227.57C233.925 219.018 240.857 212.086 249.409 212.086C257.96 212.086 264.893 219.018 264.893 227.57Z" fill="#38B2A9"/>
<path d="M328.032 120.866C328.032 137.466 314.721 150.921 298.301 150.921C281.88 150.921 268.569 137.465 268.569 120.866C268.569 104.268 281.881 90.8125 298.301 90.8125C314.721 90.8125 328.032 104.268 328.032 120.866Z" fill="#293644"/>
</g>
</g>
<defs>
<clipPath id="clip0_124_39">
<rect width="594" height="580" fill="white"/>
</clipPath>
</defs>
</svg>
