<svg viewBox="0 0 978 427" xmlns="http://www.w3.org/2000/svg">
<g clip-path="url(#clip0_118_415)">
<path d="M509.395 15.2597C509.395 13.8809 509.656 12.5976 510.179 11.409C510.702 10.1728 511.415 9.12711 512.318 8.27166C513.221 7.36818 514.267 6.65525 515.456 6.13256C516.644 5.60956 517.928 5.34822 519.306 5.34822C520.637 5.34822 521.897 5.60956 523.086 6.13256C524.322 6.65525 525.391 7.36849 526.295 8.27166C527.245 9.12711 527.982 10.1731 528.505 11.409C529.028 12.5976 529.289 13.8809 529.289 15.2597C529.289 16.6381 529.028 17.9218 528.505 19.1103C527.982 20.2988 527.245 21.3445 526.295 22.2477C525.391 23.1512 524.322 23.8641 523.086 24.3868C521.897 24.9098 520.637 25.1711 519.306 25.1711C517.928 25.1711 516.644 24.9098 515.456 24.3868C514.267 23.8641 513.221 23.1508 512.318 22.2477C511.415 21.3445 510.702 20.2988 510.179 19.1103C509.656 17.9218 509.395 16.6384 509.395 15.2597ZM887.391 6.41761C887.391 4.61127 887.985 3.08998 889.173 1.85374C890.362 0.617807 891.859 0 893.666 0C895.472 0 896.969 0.617807 898.158 1.85374C899.347 3.08998 899.941 4.61127 899.941 6.41761V6.70265C899.893 9.03199 899.418 11.2188 898.514 13.2628C897.611 15.3068 896.375 17.0894 894.806 18.6107C893.285 20.132 891.479 21.3442 889.387 22.2474C887.343 23.1031 885.156 23.531 882.827 23.531C880.45 23.531 878.216 23.0794 876.124 22.1759C874.032 21.2728 872.202 20.0605 870.634 18.5393C869.065 16.9706 867.829 15.1642 866.925 13.1199C866.022 11.0282 865.571 8.79403 865.571 6.41729C865.571 5.51381 865.737 4.68206 866.07 3.92173C866.402 3.11337 866.854 2.42414 867.425 1.85374C867.995 1.28333 868.661 0.831748 869.421 0.498986C870.182 0.166223 870.99 0 871.846 0C873.652 0 875.173 0.617807 876.41 1.85374C877.646 3.08998 878.264 4.61127 878.264 6.41761V6.70265C878.358 7.84346 878.834 8.84175 879.69 9.69751C880.546 10.553 881.591 10.9808 882.827 10.9808C884.063 10.9808 885.133 10.5296 886.036 9.62609C886.94 8.72293 887.391 7.65322 887.391 6.41729L887.391 6.41761ZM514.548 328.951C514.548 327.572 514.809 326.289 515.332 325.1C515.855 323.864 516.568 322.819 517.471 321.963C518.375 321.059 519.42 320.347 520.609 319.824C521.797 319.301 523.081 319.04 524.459 319.04C525.79 319.04 527.05 319.301 528.238 319.824C529.475 320.347 530.544 321.06 531.447 321.963C532.398 322.819 533.135 323.864 533.658 325.1C534.181 326.289 534.442 327.572 534.442 328.951C534.442 330.329 534.181 331.613 533.658 332.802C533.135 333.99 532.398 335.036 531.447 335.939C530.544 336.842 529.475 337.555 528.238 338.078C527.05 338.601 525.79 338.862 524.459 338.862C523.081 338.862 521.797 338.601 520.609 338.078C519.42 337.555 518.375 336.842 517.471 335.939C516.568 335.036 515.855 333.99 515.332 332.802C514.809 331.613 514.548 330.33 514.548 328.951ZM641.424 328.951C641.424 327.572 641.686 326.289 642.209 325.1C642.732 323.864 643.445 322.819 644.348 321.963C645.251 321.059 646.297 320.347 647.486 319.824C648.674 319.301 649.957 319.04 651.336 319.04C652.668 319.04 653.927 319.301 655.116 319.824C656.352 320.347 657.421 321.06 658.325 321.963C659.275 322.819 660.012 323.864 660.535 325.1C661.058 326.289 661.319 327.572 661.319 328.951C661.319 330.329 661.058 331.613 660.535 332.802C660.012 333.99 659.275 335.036 658.325 335.939C657.421 336.842 656.352 337.555 655.116 338.078C653.927 338.601 652.668 338.862 651.336 338.862C649.958 338.862 648.674 338.601 647.486 338.078C646.297 337.555 645.251 336.842 644.348 335.939C643.445 335.036 642.732 333.99 642.209 332.802C641.686 331.613 641.424 330.33 641.424 328.951Z" fill="#38B2A9"/>
<path d="M487.785 89.2076C487.785 84.3112 483.816 80.3418 478.919 80.3418C474.023 80.3418 470.054 84.3112 470.054 89.2076C470.054 94.1039 474.023 98.0733 478.919 98.0733C483.816 98.0733 487.785 94.1039 487.785 89.2076Z" fill="#38B2A9"/>
<path d="M399.431 403.637C399.431 408.327 403.232 412.129 407.922 412.129C412.612 412.129 416.414 408.327 416.414 403.637V329.71C416.414 325.02 412.612 321.218 407.922 321.218C403.232 321.218 399.431 325.02 399.431 329.71V403.637ZM402.718 12.926L402.722 12.9083L402.767 12.7275L402.784 12.6624L402.815 12.5455L402.85 12.4238L402.869 12.3591L402.92 12.1941L402.929 12.1691L402.982 12.0102L403.005 11.9448L403.056 11.8054L403.075 11.7548L403.133 11.6047L403.156 11.5491L403.211 11.418L403.245 11.3415L403.296 11.2268L403.343 11.1269L403.378 11.0533C404.07 9.62333 405.15 8.36875 406.561 7.46401C407.363 6.94701 408.253 6.55641 409.205 6.31909L409.247 6.30898L409.407 6.27137L409.485 6.25399L409.609 6.22808L409.744 6.20216L409.805 6.1911C410.474 6.07197 411.148 6.03183 411.814 6.06691L412.01 6.07923L412.012 6.07955C413.778 6.20848 415.4 6.85473 416.728 7.86692L416.736 7.87293L416.883 7.98796L416.934 8.02841L417.037 8.11341L417.107 8.17251L417.199 8.25246L417.273 8.31787L417.354 8.39119L417.441 8.47177L417.499 8.52739L417.6 8.62567L417.658 8.68413L417.743 8.77104L417.812 8.84341L417.887 8.92399L417.966 9.01121L418.021 9.07346L418.141 9.21283L418.146 9.21851C418.634 9.7984 419.048 10.4415 419.376 11.1342L445.188 61.7921L470.524 12.0664C471.712 8.57069 475.022 6.05553 478.92 6.05553L478.935 6.05585C480.319 6.04131 481.726 6.35132 483.044 7.02285C486.538 8.80296 488.346 12.5818 487.786 16.2571V62.9178C487.786 67.8144 483.816 71.7835 478.92 71.7835C474.023 71.7835 470.054 67.8144 470.054 62.9178V52.045L453.192 85.1379C451.61 88.2428 448.45 90.0159 445.187 89.9796C441.924 90.0159 438.764 88.2428 437.182 85.1379L420.223 51.8544V89.2092C420.223 94.1055 416.254 98.0749 411.358 98.0749C406.461 98.0749 402.492 94.1055 402.492 89.2092V15.1893C402.47 14.4245 402.547 13.6639 402.718 12.9263L402.718 12.926ZM399.431 172.701C399.431 167.366 403.756 163.04 409.092 163.04C414.427 163.04 418.753 167.366 418.753 172.701V199.352C418.753 199.804 418.721 200.249 418.661 200.685H418.753V226.669C418.753 235.869 426.21 243.326 435.41 243.326H447.403C456.602 243.326 464.06 235.869 464.06 226.669V219.075L464.059 219.007V192.023C464.059 186.687 468.384 182.362 473.72 182.362C479.056 182.362 483.381 186.687 483.381 192.023V200.685H483.381V232.666C483.381 249.225 469.958 262.649 453.399 262.649H429.413C412.854 262.649 399.431 249.225 399.431 232.666V200.685H399.522C399.462 200.249 399.431 199.805 399.431 199.353V172.702V172.701ZM528.647 88.7057C528.647 89.9894 528.409 91.2013 527.934 92.3424C527.459 93.4358 526.793 94.4104 525.938 95.2662C525.129 96.0745 524.155 96.7161 523.014 97.1917C521.92 97.6673 520.732 97.9046 519.449 97.9046C518.165 97.9046 516.953 97.6669 515.812 97.1917C514.718 96.7161 513.744 96.0745 512.888 95.2662C512.032 94.4107 511.343 93.4358 510.82 92.3424C510.345 91.2016 510.107 89.9894 510.107 88.7057V40.7873C510.107 39.504 510.345 38.3155 510.82 37.2221C511.343 36.0813 512.032 35.1067 512.888 34.2983C513.744 33.4425 514.742 32.777 515.883 32.3017C517.071 31.8261 518.307 31.5885 519.591 31.5885C520.874 31.5885 522.063 31.8264 523.156 32.3017C524.249 32.777 525.2 33.4425 526.009 34.2983C526.864 35.1067 527.506 36.0809 527.934 37.2221C528.409 38.3155 528.647 39.504 528.647 40.7873V88.7057H528.647ZM576.961 49.2729C574.965 49.368 573.063 49.8907 571.257 50.8416C569.498 51.7925 567.953 53.0047 566.622 54.4786C565.338 55.9048 564.316 57.5209 563.556 59.3272C562.795 61.1336 562.415 62.9402 562.415 64.7465C562.415 66.5055 562.795 68.2881 563.556 70.0948C564.316 71.8537 565.338 73.4698 566.622 74.9434C567.953 76.4169 569.498 77.6532 571.257 78.6515C573.063 79.602 574.965 80.1013 576.961 80.149C578.863 80.2438 580.669 80.0539 582.38 79.5783C584.092 79.0556 585.898 78.0573 587.8 76.5838C588.751 75.8708 589.773 75.1576 590.866 74.4444C591.959 73.7314 593.1 73.2325 594.288 72.9471C595.525 72.6617 596.832 72.6854 598.211 73.0182C599.589 73.351 601.039 74.159 602.56 75.443C603.558 76.2984 604.295 77.3207 604.77 78.5089C605.293 79.6497 605.531 80.8623 605.484 82.1456C605.436 83.3819 605.127 84.6412 604.556 85.9251C604.034 87.2085 603.225 88.397 602.132 89.4904C599.137 92.4853 595.596 94.7909 591.507 96.4073C587.466 97.976 583.188 98.7607 578.672 98.7607C573.871 98.7607 569.354 97.9049 565.124 96.1937C560.892 94.4348 557.208 92.0577 554.071 89.0628C550.933 86.0206 548.437 82.455 546.584 78.367C544.777 74.2311 543.874 69.7623 543.874 64.9614C543.874 60.1599 544.777 55.6915 546.584 51.5558C548.438 47.3724 550.933 43.7357 554.071 40.6458C557.208 37.5558 560.892 35.1313 565.124 33.3724C569.354 31.6131 573.871 30.734 578.672 30.734C583.236 30.734 587.538 31.4946 591.578 33.0159C595.619 34.5369 599.137 36.7951 602.132 39.79C603.225 40.8834 604.033 42.0719 604.556 43.3553C605.127 44.6389 605.436 45.9222 605.484 47.2059C605.531 48.4895 605.293 49.7258 604.77 50.914C604.295 52.0548 603.558 53.0531 602.56 53.9088C601.039 55.2399 599.589 56.072 598.211 56.4044C596.832 56.6895 595.524 56.6895 594.288 56.4044C593.1 56.0716 591.959 55.549 590.866 54.8357C589.773 54.1228 588.751 53.4095 587.8 52.6966C585.898 51.2705 584.092 50.3199 582.38 49.8443C580.669 49.369 578.863 49.1788 576.961 49.2739V49.2729ZM630.244 97.9043C628.913 97.9043 627.654 97.6666 626.465 97.1913C625.324 96.7157 624.326 96.0505 623.47 95.1945C622.614 94.339 621.925 93.3407 621.402 92.1999C620.927 91.0591 620.69 89.8229 620.69 88.4918V41.0013C620.69 39.6699 620.903 38.4343 621.331 37.2932C621.807 36.1524 622.448 35.1541 623.257 34.2983C624.112 33.4425 625.087 32.777 626.181 32.3017C627.321 31.8261 628.557 31.5885 629.888 31.5885C631.22 31.5885 632.455 31.8264 633.596 32.3017C634.737 32.777 635.712 33.4425 636.52 34.2983C637.376 35.1067 638.042 36.0809 638.517 37.2221C638.992 38.3155 639.23 39.5277 639.23 40.8587V55.049H654.775C657.675 55.049 660.384 55.6909 662.904 56.9745C665.424 58.2104 667.61 59.8742 669.464 61.9659C671.318 64.0099 672.768 66.387 673.814 69.0965C674.907 71.7586 675.454 74.5158 675.454 77.3681C675.454 80.2208 674.907 82.9063 673.814 85.4258C672.768 87.8977 671.318 90.0608 669.464 91.9149C667.61 93.7689 665.424 95.2425 662.904 96.3359C660.384 97.3816 657.675 97.9046 654.775 97.9046H630.245L630.244 97.9043ZM639.229 73.5886V79.3644H654.275C654.798 79.3644 655.368 79.1504 655.986 78.7226C656.604 78.2947 656.913 77.534 656.913 76.4406C656.913 75.5849 656.723 74.8956 656.343 74.3729C656.01 73.8499 655.321 73.5886 654.275 73.5886H639.229ZM711.511 51.8399L732.832 34.2983C733.355 33.7753 733.973 33.3 734.686 32.8721L735.328 32.5157L736.184 32.1592C737.515 31.7313 738.822 31.5414 740.105 31.5885H747.307C748.639 31.5885 749.874 31.8264 751.015 32.3017C752.156 32.777 753.155 33.4425 754.01 34.2983C754.866 35.1541 755.532 36.1524 756.007 37.2932C756.482 38.3866 756.72 39.5751 756.72 40.8584C756.72 42.1895 756.482 43.4254 756.007 44.5665C755.532 45.6599 754.866 46.6342 754.01 47.4903C753.155 48.2987 752.156 48.9402 751.015 49.4154C749.875 49.891 748.639 50.1284 747.307 50.1284H741.746L728.981 60.7531L748.734 82.2167C749.637 83.1673 750.302 84.2136 750.73 85.3541C751.158 86.4949 751.348 87.6597 751.3 88.8483C751.3 90.0368 751.039 91.2013 750.516 92.3421C750.041 93.4355 749.352 94.4341 748.448 95.337C746.594 97.1433 744.503 98.0231 742.174 97.9754C739.844 97.9754 737.753 97.0008 735.899 95.0516L715.005 72.3043L711.512 75.157V88.6337C711.512 89.9173 711.274 91.1296 710.799 92.2704C710.323 93.3638 709.681 94.3384 708.873 95.1941C708.065 96.0499 707.091 96.7154 705.949 97.191C704.856 97.6666 703.668 97.904 702.384 97.904C701.053 97.904 699.817 97.6663 698.676 97.191C697.535 96.7154 696.537 96.0502 695.681 95.1941C694.826 94.3387 694.16 93.3638 693.685 92.2704C693.209 91.1296 692.972 89.9173 692.972 88.6337V40.8581C692.972 39.5748 693.209 38.3863 693.685 37.2928C694.208 36.152 694.897 35.1538 695.752 34.298C696.608 33.4422 697.606 32.7767 698.747 32.3014C699.888 31.8258 701.1 31.5882 702.384 31.5882C703.667 31.5882 704.856 31.8261 705.949 32.3014C707.09 32.7767 708.064 33.4422 708.873 34.298C709.681 35.1538 710.323 36.152 710.798 37.2928C711.274 38.3863 711.511 39.5748 711.511 40.8581V51.8396V51.8399ZM765.81 41.1438C765.81 39.8127 766.048 38.5768 766.524 37.4357C766.999 36.2475 767.664 35.2252 768.52 34.3697C769.376 33.514 770.374 32.8484 771.515 32.3728C772.656 31.8501 773.892 31.5885 775.223 31.5885C776.554 31.5885 777.766 31.8501 778.86 32.3728C780.001 32.8484 780.975 33.5136 781.783 34.3697C782.592 35.2252 783.21 36.2475 783.637 37.4357C784.113 38.5765 784.35 39.8127 784.35 41.1438V65.2458L810.449 35.2966C811.019 34.5837 811.78 33.9181 812.73 33.3C814.252 32.1592 816.011 31.5885 818.007 31.5885C819.338 31.5885 820.574 31.8501 821.715 32.3728C822.904 32.8484 823.925 33.5136 824.781 34.3697C825.637 35.2252 826.303 36.2475 826.778 37.4357C827.301 38.5765 827.562 39.8127 827.562 41.1438V88.3493C827.562 89.6806 827.325 90.9403 826.849 92.1288C826.374 93.2696 825.708 94.2679 824.853 95.1237C823.997 95.9791 822.999 96.6683 821.858 97.1913C820.717 97.6669 819.481 97.9043 818.15 97.9043C816.819 97.9043 815.583 97.6666 814.442 97.1913C813.349 96.6683 812.398 95.9791 811.589 95.1237C810.781 94.2679 810.139 93.2696 809.664 92.1288C809.236 90.9403 809.022 89.6806 809.022 88.3493V64.3901L782.924 94.1965C782.116 95.1948 781.093 96.0505 779.858 96.7635C778.479 97.5241 776.982 97.9043 775.365 97.9043C774.034 97.9043 772.774 97.6666 771.586 97.1913C770.445 96.6683 769.447 95.9791 768.591 95.1237C767.735 94.2679 767.046 93.2696 766.524 92.1288C766.048 90.9403 765.81 89.6806 765.81 88.3493V41.1438ZM848.956 41.1438C848.956 39.8127 849.194 38.5768 849.669 37.4357C850.144 36.2475 850.809 35.2252 851.665 34.3697C852.521 33.514 853.52 32.8484 854.66 32.3728C855.801 31.8501 857.037 31.5885 858.368 31.5885C859.699 31.5885 860.912 31.8501 862.005 32.3728C863.146 32.8484 864.121 33.5136 864.929 34.3697C865.737 35.2252 866.355 36.2475 866.783 37.4357C867.258 38.5765 867.496 39.8127 867.496 41.1438V65.2458L893.594 35.2966C894.165 34.5837 894.925 33.9181 895.876 33.3C897.397 32.1592 899.156 31.5885 901.153 31.5885C902.484 31.5885 903.72 31.8501 904.861 32.3728C906.049 32.8484 907.071 33.5136 907.927 34.3697C908.782 35.2252 909.448 36.2475 909.924 37.4357C910.446 38.5765 910.708 39.8127 910.708 41.1438V88.3493C910.708 89.6806 910.47 90.9403 909.995 92.1288C909.519 93.2696 908.854 94.2679 907.998 95.1237C907.142 95.9791 906.144 96.6683 905.003 97.1913C903.862 97.6669 902.626 97.9043 901.295 97.9043C899.964 97.9043 898.728 97.6666 897.587 97.1913C896.494 96.6683 895.543 95.9791 894.735 95.1237C893.927 94.2679 893.285 93.2696 892.81 92.1288C892.382 90.9403 892.167 89.6806 892.167 88.3493V64.3901L866.069 94.1965C865.261 95.1948 864.239 96.0505 863.003 96.7635C861.624 97.5241 860.127 97.9043 858.511 97.9043C857.18 97.9043 855.92 97.6666 854.731 97.1913C853.59 96.6683 852.592 95.9791 851.737 95.1237C850.881 94.2679 850.192 93.2696 849.669 92.1288C849.193 90.9403 848.956 89.6806 848.956 88.3493V41.1438ZM516.81 229.864C518.284 232.288 520.186 234.118 522.515 235.354C524.892 236.543 527.506 237.137 530.359 237.137C532.26 237.137 533.877 236.994 535.208 236.709C536.586 236.376 537.799 235.853 538.844 235.14C540.556 233.952 542.172 233.239 543.693 233.001C545.262 232.764 546.736 232.906 548.114 233.429C549.065 233.809 549.92 234.356 550.681 235.069C551.489 235.735 552.155 236.519 552.678 237.422C553.201 238.326 553.581 239.324 553.819 240.417C554.056 241.463 554.104 242.533 553.961 243.626C553.819 244.672 553.462 245.718 552.892 246.763C552.321 247.762 551.513 248.689 550.467 249.544C549.564 250.257 548.494 250.994 547.258 251.755C546.07 252.468 544.667 253.11 543.051 253.68C541.482 254.251 539.652 254.702 537.56 255.035C535.469 255.415 533.068 255.606 530.358 255.606C525.652 255.606 521.231 254.726 517.095 252.967C512.959 251.161 509.323 248.713 506.185 245.623C503.095 242.533 500.647 238.944 498.84 234.855C497.034 230.719 496.131 226.298 496.131 221.592C496.131 216.886 497.034 212.465 498.84 208.329C500.646 204.193 503.095 200.604 506.185 197.561C509.323 194.471 512.959 192.047 517.095 190.288C521.231 188.482 525.652 187.579 530.358 187.579C534.969 187.579 539.343 188.458 543.479 190.217C547.615 191.928 551.227 194.305 554.317 197.347C557.407 200.39 559.855 203.955 561.662 208.044C563.516 212.084 564.491 216.434 564.586 221.093C564.586 223.707 563.73 225.823 562.019 227.439C560.355 229.055 558.168 229.864 555.459 229.864H516.81H516.81ZM545.547 214.461C544.264 211.609 542.315 209.517 539.7 208.186C537.133 206.808 534.138 206.118 530.715 206.118C527.293 206.118 524.321 206.855 521.802 208.329C519.33 209.755 517.476 211.799 516.24 214.461H545.547ZM594.409 211.395H617.513V197.989C617.513 196.658 617.727 195.422 618.155 194.281C618.63 193.093 619.248 192.071 620.009 191.215C620.817 190.359 621.768 189.694 622.861 189.218C623.955 188.696 625.167 188.434 626.498 188.434C627.829 188.434 629.065 188.696 630.206 189.218C631.394 189.694 632.416 190.359 633.272 191.215C634.128 192.071 634.793 193.093 635.269 194.281C635.792 195.422 636.053 196.658 636.053 197.989V245.337C636.053 246.668 635.792 247.904 635.269 249.045C634.793 250.186 634.128 251.184 633.272 252.04C632.416 252.896 631.394 253.561 630.206 254.037C629.065 254.512 627.829 254.75 626.498 254.75C625.167 254.75 623.955 254.512 622.861 254.037C621.768 253.561 620.817 252.896 620.009 252.04C619.248 251.184 618.63 250.186 618.155 249.045C617.727 247.905 617.513 246.668 617.513 245.337V229.935H594.409V245.337C594.409 246.668 594.172 247.904 593.696 249.045C593.268 250.186 592.651 251.184 591.842 252.04C591.082 252.896 590.155 253.561 589.061 254.037C587.968 254.512 586.756 254.75 585.425 254.75C584.094 254.75 582.834 254.512 581.645 254.037C580.504 253.561 579.506 252.896 578.651 252.04C577.795 251.184 577.106 250.186 576.583 249.045C576.107 247.905 575.87 246.668 575.87 245.337V197.989C575.87 196.658 576.131 195.422 576.654 194.281C577.177 193.093 577.866 192.071 578.722 191.215C579.625 190.359 580.647 189.694 581.788 189.218C582.976 188.696 584.236 188.434 585.567 188.434C586.898 188.434 588.087 188.696 589.133 189.218C590.226 189.694 591.153 190.359 591.914 191.215C592.722 192.071 593.34 193.093 593.768 194.281C594.196 195.422 594.41 196.658 594.41 197.989V211.395H594.409ZM693.474 206.974V245.337C693.474 246.668 693.212 247.904 692.69 249.045C692.214 250.186 691.549 251.184 690.693 252.04C689.837 252.896 688.815 253.561 687.627 254.037C686.486 254.512 685.25 254.75 683.919 254.75C682.587 254.75 681.376 254.512 680.282 254.037C679.189 253.561 678.238 252.896 677.43 252.04C676.669 251.184 676.051 250.186 675.576 249.045C675.148 247.905 674.934 246.668 674.934 245.337V206.974H658.818C657.487 206.974 656.251 206.76 655.11 206.332C653.97 205.857 652.971 205.215 652.115 204.407C651.26 203.599 650.594 202.648 650.119 201.554C649.643 200.461 649.406 199.273 649.406 197.989C649.406 196.658 649.644 195.422 650.119 194.281C650.594 193.093 651.26 192.071 652.115 191.215C652.971 190.359 653.97 189.694 655.11 189.218C656.251 188.695 657.487 188.434 658.818 188.434H708.876C710.207 188.434 711.443 188.695 712.584 189.218C713.773 189.694 714.795 190.359 715.65 191.215C716.506 192.071 717.171 193.093 717.647 194.281C718.17 195.422 718.431 196.658 718.431 197.989C718.431 199.32 718.17 200.532 717.647 201.626C717.171 202.719 716.506 203.67 715.65 204.478C714.795 205.239 713.773 205.857 712.584 206.332C711.443 206.76 710.207 206.974 708.876 206.974H693.473H693.474ZM729.254 197.347C729.254 194.685 729.777 192.522 730.823 190.858C731.917 189.147 733.794 188.291 736.456 188.291C738.263 188.291 739.737 188.838 740.877 189.931C742.018 191.025 743.017 192.451 743.872 194.21C746.725 192.118 749.838 190.502 753.213 189.361C756.636 188.172 760.225 187.578 763.981 187.578C768.687 187.578 773.084 188.481 777.173 190.288C781.308 192.047 784.897 194.471 787.94 197.561C791.03 200.651 793.454 204.264 795.213 208.4C797.019 212.488 797.923 216.885 797.923 221.592C797.923 226.251 797.019 230.648 795.213 234.784C793.454 238.92 791.03 242.532 787.94 245.622C784.897 248.712 781.308 251.16 777.173 252.967C773.084 254.726 768.687 255.606 763.981 255.606C761.033 255.606 758.205 255.249 755.495 254.536C752.785 253.823 750.218 252.801 747.794 251.47V269.368C747.794 270.651 747.556 271.863 747.081 273.004C746.653 274.193 746.035 275.215 745.227 276.07C744.466 276.926 743.516 277.592 742.375 278.067C741.281 278.59 740.069 278.851 738.738 278.851C737.407 278.851 736.171 278.59 735.03 278.067C733.889 277.592 732.891 276.926 732.035 276.07C731.179 275.215 730.49 274.193 729.967 273.004C729.492 271.863 729.254 270.651 729.254 269.368V197.347V197.347ZM748.507 221.592C748.507 223.731 748.911 225.751 749.719 227.653C750.575 229.507 751.692 231.147 753.071 232.573C754.497 233.952 756.137 235.045 757.991 235.853C759.893 236.662 761.889 237.066 763.981 237.066C766.12 237.066 768.117 236.661 769.971 235.853C771.872 235.045 773.512 233.952 774.891 232.573C776.269 231.147 777.363 229.507 778.171 227.653C778.98 225.752 779.383 223.731 779.383 221.592C779.383 219.453 778.979 217.456 778.171 215.602C777.363 213.701 776.27 212.06 774.891 210.682C773.512 209.255 771.872 208.138 769.971 207.33C768.117 206.522 766.12 206.118 763.981 206.118C761.889 206.118 759.893 206.522 757.991 207.33C756.137 208.138 754.497 209.255 753.071 210.682C751.692 212.06 750.575 213.701 749.719 215.602C748.911 217.456 748.507 219.453 748.507 221.592ZM452.491 368.241H475.594V354.835C475.594 353.504 475.808 352.268 476.237 351.127C476.712 349.938 477.33 348.916 478.091 348.061C478.899 347.205 479.85 346.539 480.943 346.064C482.036 345.541 483.248 345.28 484.58 345.28C485.911 345.28 487.147 345.541 488.287 346.064C489.476 346.539 490.498 347.205 491.354 348.061C492.209 348.916 492.875 349.938 493.351 351.127C493.873 352.268 494.135 353.504 494.135 354.835V402.183C494.135 403.514 493.873 404.75 493.351 405.891C492.875 407.032 492.21 408.03 491.354 408.886C490.498 409.741 489.476 410.407 488.287 410.882C487.147 411.358 485.911 411.595 484.58 411.595C483.248 411.595 482.036 411.358 480.943 410.882C479.85 410.407 478.899 409.741 478.091 408.886C477.33 408.03 476.712 407.032 476.237 405.891C475.809 404.75 475.594 403.514 475.594 402.183V386.78H452.491V402.183C452.491 403.514 452.253 404.75 451.778 405.891C451.35 407.032 450.732 408.03 449.924 408.886C449.163 409.741 448.236 410.407 447.143 410.882C446.05 411.358 444.837 411.595 443.506 411.595C442.175 411.595 440.915 411.358 439.727 410.882C438.586 410.407 437.588 409.741 436.732 408.886C435.877 408.03 435.187 407.032 434.664 405.891C434.189 404.75 433.951 403.514 433.951 402.183V354.835C433.951 353.504 434.213 352.268 434.736 351.127C435.258 349.938 435.948 348.916 436.803 348.061C437.707 347.205 438.729 346.539 439.87 346.064C441.058 345.541 442.318 345.28 443.649 345.28C444.98 345.28 446.168 345.541 447.214 346.064C448.308 346.539 449.235 347.205 449.995 348.061C450.804 348.916 451.422 349.938 451.849 351.127C452.277 352.268 452.491 353.504 452.491 354.835V368.241H452.491ZM533.8 402.397C533.8 403.68 533.562 404.893 533.087 406.033C532.611 407.127 531.946 408.101 531.09 408.957C530.282 409.765 529.308 410.407 528.167 410.883C527.073 411.358 525.885 411.596 524.601 411.596C523.318 411.596 522.106 411.358 520.964 410.883C519.871 410.407 518.897 409.765 518.041 408.957C517.185 408.102 516.496 407.127 515.973 406.033C515.497 404.893 515.26 403.68 515.26 402.397V354.478C515.26 353.195 515.498 352.006 515.973 350.913C516.496 349.772 517.185 348.798 518.041 347.989C518.896 347.134 519.895 346.468 521.036 345.993C522.224 345.517 523.46 345.28 524.744 345.28C526.027 345.28 527.216 345.517 528.309 345.993C529.402 346.468 530.353 347.133 531.161 347.989C532.017 348.798 532.659 349.772 533.087 350.913C533.562 352.006 533.8 353.195 533.8 354.478V402.397H533.8ZM617.055 393.127H618.267C620.453 393.127 622.355 393.792 623.971 395.123C625.587 396.455 626.633 398.142 627.109 400.186C627.109 400.329 627.132 400.448 627.18 400.543C627.18 400.733 627.204 400.899 627.251 401.042C627.251 401.232 627.251 401.422 627.251 401.613C627.299 401.803 627.323 401.993 627.323 402.183V417.371C627.323 418.655 627.085 419.819 626.61 420.865C626.134 421.959 625.469 422.862 624.613 423.575C623.805 424.336 622.854 424.93 621.761 425.358C620.667 425.786 619.503 426 618.267 426C616.983 426 615.771 425.762 614.63 425.287C613.489 424.811 612.491 424.17 611.635 423.361C610.78 422.553 610.09 421.602 609.567 420.509C609.045 419.416 608.783 418.227 608.783 416.943V411.596H564.787C564.549 411.596 564.335 411.596 564.145 411.596C564.002 411.596 563.812 411.572 563.574 411.524C562.386 411.382 561.269 411.049 560.223 410.526C559.224 410.003 558.345 409.337 557.584 408.529C556.871 407.673 556.301 406.723 555.873 405.677C555.445 404.583 555.231 403.419 555.231 402.183V354.835C555.231 353.504 555.469 352.268 555.944 351.127C556.467 349.938 557.156 348.916 558.012 348.061C558.867 347.205 559.866 346.539 561.007 346.064C562.195 345.541 563.455 345.28 564.786 345.28C566.117 345.28 567.329 345.541 568.422 346.064C569.516 346.539 570.443 347.205 571.204 348.061C572.012 348.916 572.63 349.938 573.058 351.127C573.533 352.268 573.771 353.504 573.771 354.835V393.127H598.514V354.835C598.514 353.504 598.752 352.268 599.227 351.127C599.75 349.938 600.439 348.916 601.295 348.061C602.151 347.205 603.149 346.539 604.29 346.064C605.478 345.541 606.738 345.28 608.069 345.28C609.4 345.28 610.612 345.541 611.706 346.064C612.799 346.539 613.726 347.205 614.487 348.061C615.295 348.916 615.913 349.938 616.341 351.127C616.816 352.268 617.054 353.504 617.054 354.835V393.127H617.055ZM660.677 402.397C660.677 403.68 660.439 404.893 659.964 406.033C659.488 407.127 658.823 408.101 657.967 408.957C657.159 409.765 656.184 410.407 655.043 410.883C653.95 411.358 652.761 411.596 651.478 411.596C650.194 411.596 648.983 411.358 647.841 410.883C646.748 410.407 645.774 409.765 644.918 408.957C644.062 408.102 643.373 407.127 642.85 406.033C642.374 404.893 642.137 403.68 642.137 402.397V354.478C642.137 353.195 642.375 352.006 642.85 350.913C643.373 349.772 644.062 348.798 644.918 347.989C645.773 347.134 646.772 346.468 647.913 345.993C649.101 345.517 650.337 345.28 651.62 345.28C652.904 345.28 654.092 345.517 655.186 345.993C656.279 346.468 657.23 347.133 658.038 347.989C658.894 348.798 659.536 349.772 659.963 350.913C660.439 352.006 660.676 353.195 660.676 354.478V402.397H660.677ZM677.045 378.437C677.045 373.731 677.949 369.334 679.755 365.246C681.561 361.11 684.009 357.497 687.1 354.407C690.19 351.317 693.779 348.893 697.867 347.134C702.003 345.327 706.4 344.424 711.059 344.424C714.767 344.424 718.332 344.995 721.755 346.135C725.178 347.276 728.315 348.869 731.167 350.913C732.023 349.201 732.998 347.823 734.091 346.777C735.232 345.684 736.706 345.137 738.512 345.137C741.127 345.137 742.981 345.993 744.074 347.704C745.168 349.368 745.714 351.531 745.714 354.193V402.111C745.714 403.395 745.453 404.631 744.93 405.819C744.454 406.96 743.789 407.959 742.933 408.814C742.077 409.67 741.079 410.359 739.938 410.882C738.797 411.358 737.561 411.595 736.23 411.595C734.424 411.595 732.831 411.167 731.453 410.312C730.122 409.408 729.076 408.267 728.315 406.889C725.748 408.6 723.015 409.955 720.115 410.953C717.215 411.952 714.196 412.451 711.059 412.451C706.4 412.451 702.003 411.572 697.867 409.813C693.779 408.006 690.189 405.558 687.1 402.468C684.01 399.378 681.562 395.765 679.755 391.629C677.949 387.493 677.045 383.096 677.045 378.437V378.437ZM695.585 378.437C695.585 380.577 695.989 382.597 696.797 384.499C697.653 386.353 698.77 387.993 700.149 389.419C701.575 390.797 703.215 391.891 705.069 392.699C706.97 393.508 708.967 393.911 711.059 393.911C713.198 393.911 715.195 393.507 717.049 392.699C718.95 391.891 720.59 390.798 721.969 389.419C723.347 387.993 724.441 386.353 725.249 384.499C726.057 382.597 726.461 380.577 726.461 378.437C726.461 376.298 726.057 374.302 725.249 372.448C724.441 370.546 723.348 368.906 721.969 367.528C720.59 366.101 718.95 364.984 717.049 364.176C715.195 363.368 713.198 362.964 711.059 362.964C708.967 362.964 706.971 363.368 705.069 364.176C703.215 364.984 701.575 366.101 700.149 367.528C698.77 368.906 697.653 370.546 696.797 372.448C695.989 374.302 695.585 376.298 695.585 378.437ZM800.574 363.82V402.183C800.574 403.514 800.313 404.75 799.79 405.891C799.314 407.032 798.649 408.03 797.793 408.886C796.937 409.741 795.915 410.407 794.727 410.882C793.586 411.358 792.35 411.595 791.019 411.595C789.688 411.595 788.475 411.358 787.382 410.882C786.289 410.407 785.338 409.741 784.53 408.886C783.769 408.03 783.151 407.032 782.676 405.891C782.248 404.75 782.034 403.514 782.034 402.183V363.82H765.918C764.587 363.82 763.351 363.606 762.21 363.177C761.069 362.702 760.071 362.061 759.216 361.252C758.36 360.444 757.694 359.493 757.219 358.4C756.743 357.307 756.506 356.118 756.506 354.834C756.506 353.503 756.744 352.267 757.219 351.127C757.694 349.938 758.36 348.916 759.216 348.06C760.071 347.205 761.07 346.539 762.21 346.064C763.351 345.541 764.587 345.279 765.918 345.279H815.976C817.307 345.279 818.543 345.541 819.684 346.064C820.872 346.539 821.894 347.205 822.75 348.06C823.606 348.916 824.271 349.938 824.747 351.127C825.27 352.267 825.531 353.503 825.531 354.834C825.531 356.166 825.27 357.378 824.747 358.471C824.271 359.565 823.606 360.515 822.75 361.324C821.894 362.084 820.872 362.702 819.684 363.177C818.543 363.605 817.307 363.82 815.976 363.82H800.574H800.574ZM839.903 354.835C839.903 353.504 840.141 352.268 840.616 351.127C841.092 349.938 841.757 348.916 842.613 348.061C843.468 347.205 844.467 346.539 845.608 346.064C846.749 345.541 847.985 345.28 849.316 345.28C850.647 345.28 851.859 345.541 852.952 346.064C854.093 346.539 855.068 347.205 855.876 348.061C856.684 348.916 857.302 349.938 857.73 351.127C858.206 352.268 858.443 353.504 858.443 354.835V378.937L884.541 348.988C885.112 348.275 885.873 347.609 886.823 346.991C888.345 345.85 890.103 345.28 892.1 345.28C893.431 345.28 894.667 345.541 895.808 346.064C896.996 346.539 898.018 347.205 898.874 348.061C899.73 348.916 900.395 349.938 900.871 351.127C901.394 352.268 901.655 353.504 901.655 354.835V402.04C901.655 403.372 901.417 404.631 900.942 405.82C900.467 406.961 899.801 407.959 898.946 408.815C898.09 409.67 897.092 410.36 895.951 410.882C894.81 411.358 893.574 411.595 892.243 411.595C890.912 411.595 889.676 411.358 888.534 410.882C887.441 410.36 886.491 409.67 885.682 408.815C884.874 407.959 884.232 406.961 883.757 405.82C883.329 404.631 883.115 403.372 883.115 402.04V378.081L857.017 407.887C856.208 408.886 855.186 409.741 853.95 410.454C852.572 411.215 851.074 411.595 849.458 411.595C848.127 411.595 846.867 411.358 845.679 410.882C844.538 410.36 843.54 409.67 842.684 408.815C841.828 407.959 841.139 406.961 840.616 405.82C840.14 404.631 839.903 403.372 839.903 402.04V354.835ZM932.176 411.595C930.892 411.595 929.68 411.358 928.539 410.882C927.446 410.407 926.495 409.765 925.687 408.957C924.878 408.149 924.237 407.198 923.761 406.104C923.286 405.011 923.048 403.846 923.048 402.611V354.264C923.048 352.981 923.286 351.792 923.761 350.699C924.237 349.606 924.878 348.655 925.687 347.847C926.542 347.038 927.517 346.421 928.61 345.993C929.751 345.517 930.94 345.28 932.176 345.28H953.853C956.42 345.28 958.939 345.684 961.411 346.492C963.931 347.3 966.165 348.512 968.114 350.128C970.063 351.697 971.632 353.67 972.821 356.047C974.057 358.424 974.675 361.205 974.675 364.39C974.675 366.814 974.152 369.025 973.106 371.022C972.06 373.018 970.682 374.777 968.97 376.298C971.68 377.962 973.795 380.078 975.317 382.645C976.885 385.212 977.67 388.064 977.67 391.201C977.67 394.291 977.099 397.096 975.958 399.615C974.818 402.087 973.249 404.226 971.252 406.033C969.255 407.792 966.902 409.171 964.193 410.169C961.531 411.12 958.655 411.595 955.564 411.595H932.176H932.176ZM941.588 385.14V393.84H955.992C957.513 393.84 958.702 393.507 959.557 392.842C960.413 392.129 960.841 391.106 960.841 389.775C960.841 388.444 960.413 387.351 959.557 386.495C958.749 385.592 957.561 385.14 955.992 385.14H941.588ZM941.588 362.536V371.521H953.282C953.758 371.521 954.257 371.449 954.78 371.307C955.351 371.164 955.85 370.927 956.278 370.594C956.753 370.261 957.133 369.81 957.419 369.239C957.704 368.621 957.846 367.885 957.846 367.029C957.846 366.173 957.704 365.46 957.419 364.89C957.133 364.272 956.777 363.796 956.349 363.463C955.921 363.131 955.446 362.893 954.923 362.751C954.4 362.608 953.901 362.537 953.425 362.537H941.588V362.536Z" fill="white"/>
<path fill-rule="evenodd" clip-rule="evenodd" d="M475.783 259.149L480.63 267.544C483.297 272.165 489.206 273.747 493.827 271.08C498.447 268.412 500.031 262.503 497.363 257.883L491.288 247.36C490.042 245.203 488.091 243.708 485.894 242.998C484.353 249.439 480.733 255.073 475.784 259.149H475.783Z" fill="#38B2A9"/>
</g>
<g clip-path="url(#clip1_118_415)">
<path d="M73.8868 391.953C73.8868 396.918 69.8628 400.943 64.8986 400.943C59.9339 400.943 55.9087 396.919 55.9087 391.953C55.9087 386.989 59.9328 382.965 64.8986 382.965C69.8633 382.965 73.8868 386.989 73.8868 391.953ZM140.969 0C154.414 1.76411 167.204 5.68735 178.973 11.4125C179.109 12.3976 179.181 13.4034 179.181 14.4257C179.181 26.482 169.408 36.2553 157.351 36.2553C145.296 36.2553 135.522 26.482 135.522 14.4257C135.522 8.89563 137.58 3.84654 140.969 0ZM186.265 15.2656C196.563 21.1469 205.955 28.4526 214.169 36.9094C211.002 39.6981 206.846 41.3904 202.295 41.3904C192.366 41.3904 184.317 33.3412 184.317 23.4129C184.317 20.4802 185.019 17.7113 186.265 15.2656H186.265ZM219.11 42.2905C237.427 63.4714 248.775 90.8245 249.492 120.69C225.819 117.987 207.429 97.8886 207.429 73.4912C207.429 61.5495 211.836 50.6377 219.11 42.2905ZM249.531 131.759V174.367C244.224 179.464 237.018 182.596 229.078 182.596C212.767 182.596 199.545 169.374 199.545 153.063C199.545 136.751 212.768 123.529 229.078 123.529C237.018 123.529 244.224 126.662 249.531 131.758V131.759ZM249.531 183.327V207.651C244.465 205.931 240.819 201.135 240.819 195.489C240.819 189.842 244.465 185.047 249.531 183.327ZM249.531 301.968V302.235C249.531 332.18 238.839 359.749 221.083 381.312C206.921 374.453 197.155 359.943 197.155 343.153C197.155 319.75 216.126 300.777 239.53 300.777C242.976 300.777 246.324 301.191 249.531 301.968L249.531 301.968ZM209.609 393.496C202.348 400.251 194.29 406.158 185.594 411.052C174.752 409.777 166.34 400.56 166.34 389.375C166.34 377.319 176.113 367.546 188.169 367.546C200.225 367.546 209.999 377.319 209.999 389.375C209.999 390.784 209.864 392.161 209.609 393.496ZM177.14 415.396C161.191 422.834 143.442 427.001 124.765 427.001C123.603 427.001 122.444 426.982 121.289 426.95C125.071 413.431 137.479 403.514 152.207 403.514C162.272 403.514 171.254 408.147 177.14 415.396V415.396ZM90.7264 422.252C84.2359 420.398 77.9602 418.022 71.9408 415.185C71.5354 413.935 71.3151 412.602 71.3151 411.218C71.3151 404.126 77.0649 398.377 84.1565 398.377C91.248 398.377 96.9972 404.127 96.9972 411.218C96.9972 415.908 94.4815 420.011 90.7259 422.252H90.7264ZM53.3393 404.372C43.7309 397.62 35.1075 389.548 27.7355 380.43C28.1365 380.41 28.5408 380.4 28.9474 380.4C42.279 380.4 53.1119 391.094 53.3393 404.372ZM4.60532 335.745C1.60907 325.071 0 313.833 0 302.236V286.875C5.08689 282.723 11.5829 280.231 18.6613 280.231C34.9727 280.231 48.1959 293.453 48.1959 309.765C48.1959 326.076 34.9733 339.298 18.6613 339.298C13.5727 339.298 8.78496 338.011 4.60532 335.745ZM0 279.401V255.38C1.41458 254.843 2.94804 254.549 4.55054 254.549C11.6421 254.549 17.3913 260.299 17.3913 267.39C17.3913 274.481 11.6415 280.231 4.55054 280.231C2.94804 280.231 1.41458 279.937 0 279.401ZM0 244.119V175.094C11.928 181.969 19.958 194.85 19.958 209.606C19.958 224.362 11.9286 237.243 0 244.119ZM2.39854 99.4111C5.43479 84.1932 11.2602 69.9499 19.3154 57.2428C29.9297 59.3345 37.9361 68.6903 37.9361 79.9182C37.9361 92.6834 27.5876 103.031 14.8224 103.031C10.2494 103.031 5.98648 101.703 2.39854 99.4111ZM32.9336 39.4784C44.8047 26.5521 59.3504 16.1192 75.6685 9.07368C76.1807 11.2016 76.4541 13.4226 76.4541 15.7077C76.4541 31.3103 63.8061 43.9571 48.2047 43.9571C42.5787 43.9571 37.3373 42.3124 32.9342 39.4778L32.9336 39.4784ZM198.529 69.5499C198.529 85.2993 185.762 98.0656 170.013 98.0656C154.266 98.0656 141.498 85.2993 141.498 69.5499C141.498 53.8006 154.264 41.0343 170.013 41.0343C185.763 41.0343 198.529 53.8006 198.529 69.5499ZM138.09 41.3975C138.09 57.0001 125.442 69.6475 109.841 69.6475C94.2382 69.6475 81.5914 56.9995 81.5914 41.3975C81.5914 25.795 94.2388 13.1476 109.841 13.1476C125.443 13.1476 138.09 25.7955 138.09 41.3975ZM86.7243 73.4951C86.7243 85.5508 76.9504 95.3246 64.8948 95.3246C52.8385 95.3246 43.0652 85.5508 43.0652 73.4951C43.0652 61.4388 52.8385 51.6655 64.8948 51.6655C76.9504 51.6655 86.7243 61.4388 86.7243 73.4951ZM63.6051 106.885C63.6051 111.849 59.581 115.873 54.6169 115.873C49.6521 115.873 45.627 111.849 45.627 106.885C45.627 101.92 49.6516 97.8946 54.6169 97.8946C59.581 97.8946 63.6051 101.918 63.6051 106.885ZM43.0668 122.295C43.0668 131.514 35.5924 138.988 26.3741 138.988C17.1541 138.988 9.68126 131.514 9.68126 122.295C9.68126 113.075 17.1557 105.601 26.3741 105.601C35.594 105.601 43.0668 113.075 43.0668 122.295ZM118.067 116.911C118.067 129.003 108.037 138.807 95.6627 138.807C83.2898 138.807 73.2584 129.004 73.2584 116.911C73.2584 104.819 83.2887 95.0151 95.6627 95.0151C108.036 95.0151 118.067 104.819 118.067 116.911ZM123.872 86.2005C123.872 92.5831 118.699 97.7577 112.315 97.7577C105.932 97.7577 100.758 92.5842 100.758 86.2005C100.758 79.818 105.931 74.6428 112.315 74.6428C118.697 74.6428 123.872 79.8163 123.872 86.2005ZM159.83 114.872C159.83 124.152 152.307 131.676 143.026 131.676C133.746 131.676 126.222 124.152 126.222 114.872C126.222 105.591 133.746 98.0672 143.026 98.0672C152.307 98.0672 159.83 105.591 159.83 114.872ZM194.455 135.749C194.455 143.623 188.071 150.007 180.197 150.007C172.323 150.007 165.94 143.623 165.94 135.749C165.94 127.876 172.323 121.492 180.197 121.492C188.071 121.492 194.455 127.876 194.455 135.749ZM210.969 107.856C210.969 114.948 205.22 120.697 198.129 120.697C191.037 120.697 185.287 114.947 185.287 107.856C185.287 100.765 191.038 95.0156 198.129 95.0156C205.22 95.0156 210.969 100.765 210.969 107.856ZM222.962 202.965C222.962 214.214 213.843 223.332 202.595 223.332C191.345 223.332 182.226 214.213 182.226 202.965C182.226 191.715 191.346 182.596 202.595 182.596C213.844 182.596 222.962 191.716 222.962 202.965ZM243.38 214.742C243.38 219.707 239.356 223.73 234.392 223.73C229.427 223.73 225.404 219.707 225.404 214.742C225.404 209.777 229.429 205.754 234.392 205.754C239.357 205.754 243.38 209.777 243.38 214.742ZM197.51 169.36C197.51 172.734 194.774 175.47 191.398 175.47C188.024 175.47 185.288 172.734 185.288 169.36C185.288 165.985 188.024 163.249 191.398 163.249C194.774 163.249 197.51 165.985 197.51 169.36ZM68.7479 136.42C68.7479 143.512 62.9981 149.261 55.9065 149.261C48.815 149.261 43.0658 143.511 43.0658 136.42C43.0658 129.328 48.8156 123.579 55.9065 123.579C62.9981 123.579 68.7479 129.329 68.7479 136.42ZM75.2926 168.343C75.2926 174.53 70.2769 179.545 64.0899 179.545C57.9035 179.545 52.8867 174.53 52.8867 168.343C52.8867 162.155 57.9024 157.14 64.0899 157.14C70.2769 157.14 75.2926 162.156 75.2926 168.343ZM50.767 165.95C50.767 178.006 40.9937 187.78 28.9375 187.78C16.8813 187.78 7.10796 178.006 7.10796 165.95C7.10796 153.894 16.8813 144.12 28.9375 144.12C40.9937 144.12 50.767 153.894 50.767 165.95ZM71.2198 214.168C71.2198 225.417 62.1007 234.536 50.852 234.536C39.6027 234.536 30.4841 225.416 30.4841 214.168C30.4841 202.919 39.6033 193.799 50.852 193.799C62.1012 193.799 71.2198 202.919 71.2198 214.168ZM79.0203 268.676C79.0203 282.15 68.097 293.074 54.6218 293.074C41.1477 293.074 30.2244 282.151 30.2244 268.676C30.2244 255.202 41.1477 244.279 54.6218 244.279C68.0959 244.279 79.0203 255.202 79.0203 268.676ZM32.801 245.561C32.801 250.526 28.7764 254.55 23.8112 254.55C18.8464 254.55 14.8229 250.526 14.8229 245.561C14.8229 240.597 18.847 236.573 23.8112 236.573C28.7753 236.573 32.801 240.597 32.801 245.561ZM105.844 254.395C105.844 260.299 101.056 265.088 95.151 265.088C89.2461 265.088 84.4572 260.3 84.4572 254.395C84.4572 248.49 89.2456 243.701 95.151 243.701C101.057 243.701 105.844 248.49 105.844 254.395ZM109.846 282.809C109.846 289.9 104.096 295.65 97.0055 295.65C89.9139 295.65 84.1641 289.9 84.1641 282.809C84.1641 275.717 89.9145 269.968 97.0055 269.968C104.098 269.968 109.846 275.718 109.846 282.809ZM145.569 267.126C145.569 275.563 138.729 282.402 130.293 282.402C121.856 282.402 115.018 275.563 115.018 267.126C115.018 258.69 121.856 251.85 130.293 251.85C138.729 251.85 145.569 258.69 145.569 267.126ZM185.287 246.749C185.287 254.623 178.904 261.006 171.03 261.006C163.156 261.006 156.772 254.623 156.772 246.749C156.772 238.875 163.155 232.491 171.03 232.491C178.904 232.491 185.287 238.874 185.287 246.749ZM248.534 253.267C248.534 266.741 237.611 277.664 224.137 277.664C210.663 277.664 199.738 266.741 199.738 253.267C199.738 239.793 210.661 228.87 224.137 228.87C237.611 228.87 248.534 239.793 248.534 253.267ZM197.504 265.599C197.504 269.818 194.085 273.238 189.866 273.238C185.647 273.238 182.228 269.819 182.228 265.599C182.228 261.381 185.647 257.961 189.866 257.961C194.084 257.961 197.504 261.38 197.504 265.599ZM227.979 291.789C227.979 298.171 222.806 303.346 216.423 303.346C210.04 303.346 204.866 298.171 204.866 291.789C204.866 285.406 210.039 280.232 216.423 280.232C222.805 280.232 227.979 285.405 227.979 291.789ZM202.298 302.073C202.298 319.802 187.925 334.176 170.195 334.176C152.465 334.176 138.092 319.804 138.092 302.073C138.092 284.342 152.464 269.97 170.195 269.97C187.926 269.97 202.298 284.342 202.298 302.073ZM132.329 301.745C132.329 306.244 128.681 309.891 124.183 309.891C119.683 309.891 116.037 306.243 116.037 301.745C116.037 297.245 119.685 293.596 124.183 293.596C128.682 293.596 132.329 297.244 132.329 301.745ZM111.963 310.914C111.963 315.413 108.314 319.06 103.816 319.06C99.3163 319.06 95.6692 315.412 95.6692 310.914C95.6692 306.414 99.3174 302.767 103.816 302.767C108.316 302.767 111.963 306.415 111.963 310.914ZM89.2954 316.187C89.2954 326.116 81.2468 334.164 71.3179 334.164C61.389 334.164 53.3414 326.115 53.3414 316.187C53.3414 306.258 61.3901 298.21 71.3179 298.21C81.2468 298.21 89.2954 306.258 89.2954 316.187ZM163.776 363.7C163.776 387.102 144.804 406.075 121.401 406.075C97.9987 406.075 79.0257 387.103 79.0257 363.7C79.0257 340.297 97.9976 321.324 121.401 321.324C144.804 321.324 163.776 340.296 163.776 363.7ZM192.022 349.583C192.022 356.674 186.272 362.424 179.181 362.424C172.089 362.424 166.34 356.674 166.34 349.583C166.34 342.491 172.089 336.741 179.181 336.741C186.272 336.741 192.022 342.492 192.022 349.583ZM73.8852 358.569C73.8852 372.043 62.9619 382.967 49.4878 382.967C36.0137 382.967 25.0904 372.043 25.0904 358.569C25.0904 345.095 36.0131 334.172 49.4878 334.172C62.9619 334.172 73.8852 345.095 73.8852 358.569Z" fill="#38B2A9"/>
<path d="M173.371 190.444C173.371 216.599 152.398 237.8 126.525 237.8C100.652 237.8 79.6787 216.598 79.6787 190.444C79.6787 164.29 100.652 143.09 126.525 143.09C152.397 143.09 173.371 164.291 173.371 190.444Z" fill="white"/>
</g>
<defs>
<clipPath id="clip0_118_415">
<rect width="578.241" height="426" fill="white" transform="translate(399.431)"/>
</clipPath>
<clipPath id="clip1_118_415">
<rect width="249.531" height="427" fill="white"/>
</clipPath>
</defs>
</svg>
